<svg width="16" height="16" viewBox="0 0 16 16" fill="none" xmlns="http://www.w3.org/2000/svg">
<mask id="mask0_1541_699" style="mask-type:alpha" maskUnits="userSpaceOnUse" x="0" y="0" width="16" height="16">
<rect x="0.5" y="0.5" width="15" height="15" fill="#D9D9D9"/>
</mask>
<g mask="url(#mask0_1541_699)">
<path d="M4.625 2.375C5.28125 2.375 5.90625 2.51292 6.5 2.78875C7.09375 3.065 7.59375 3.44792 8 3.9375C8.40625 3.44792 8.90625 3.065 9.5 2.78875C10.0938 2.51292 10.7188 2.375 11.375 2.375C12.5417 2.375 13.5208 2.77083 14.3125 3.5625C15.1042 4.35417 15.5 5.33333 15.5 6.5C15.5 6.89583 15.4479 7.28646 15.3438 7.67188C15.2396 8.05729 15.0938 8.4375 14.9062 8.8125C14.7917 8.61458 14.6562 8.4375 14.5 8.28125C14.3438 8.125 14.1615 8 13.9531 7.90625C14.0469 7.66667 14.1198 7.43229 14.1719 7.20312C14.224 6.97396 14.25 6.73958 14.25 6.5C14.25 5.6875 13.974 5.00521 13.4219 4.45312C12.8698 3.90104 12.1875 3.625 11.375 3.625C10.5312 3.625 9.88292 3.85667 9.43 4.32C8.97667 4.78375 8.5 5.30208 8 5.875C7.5 5.29167 7.02354 4.77083 6.57063 4.3125C6.11729 3.85417 5.46875 3.625 4.625 3.625C3.8125 3.625 3.13021 3.90104 2.57812 4.45312C2.02604 5.00521 1.75 5.6875 1.75 6.5C1.75 6.73958 1.77604 6.97396 1.82812 7.20312C1.88021 7.43229 1.95312 7.66667 2.04688 7.90625C1.83854 8 1.65625 8.125 1.5 8.28125C1.34375 8.4375 1.20833 8.61458 1.09375 8.8125C0.90625 8.4375 0.760417 8.05729 0.65625 7.67188C0.552083 7.28646 0.5 6.89583 0.5 6.5C0.5 5.33333 0.895833 4.35417 1.6875 3.5625C2.47917 2.77083 3.45833 2.375 4.625 2.375ZM1.125 14.25C0.947917 14.25 0.799583 14.19 0.68 14.07C0.56 13.9504 0.5 13.8021 0.5 13.625V13.2656C0.5 12.8073 0.729167 12.4402 1.1875 12.1644C1.64583 11.8881 2.25 11.75 3 11.75C3.13542 11.75 3.26312 11.7552 3.38312 11.7656C3.50271 11.776 3.61979 11.7917 3.73438 11.8125C3.58854 12.0208 3.48167 12.2448 3.41375 12.4844C3.34625 12.724 3.3125 12.9792 3.3125 13.25V14.25H1.125ZM4.875 14.25C4.69792 14.25 4.54938 14.19 4.42938 14.07C4.30979 13.9504 4.25 13.8021 4.25 13.625V13.25C4.25 12.5729 4.59646 12.0233 5.28938 11.6012C5.98187 11.1796 6.88542 10.9688 8 10.9688C9.125 10.9688 10.0312 11.1796 10.7188 11.6012C11.4062 12.0233 11.75 12.5729 11.75 13.25V13.625C11.75 13.8021 11.69 13.9504 11.57 14.07C11.4504 14.19 11.3021 14.25 11.125 14.25H4.875ZM12.6875 14.25V13.25C12.6875 12.9792 12.651 12.724 12.5781 12.4844C12.5052 12.2448 12.401 12.0208 12.2656 11.8125C12.3802 11.7917 12.4975 11.776 12.6175 11.7656C12.7371 11.7552 12.8646 11.75 13 11.75C13.75 11.75 14.3542 11.8881 14.8125 12.1644C15.2708 12.4402 15.5 12.8073 15.5 13.2656V13.625C15.5 13.8021 15.44 13.9504 15.32 14.07C15.2004 14.19 15.0521 14.25 14.875 14.25H12.6875ZM8 12.2188C7.40625 12.2188 6.875 12.2994 6.40625 12.4606C5.9375 12.6223 5.66146 12.8021 5.57812 13H10.4219C10.3281 12.7917 10.0496 12.6094 9.58625 12.4531C9.1225 12.2969 8.59375 12.2188 8 12.2188ZM3 11.125C2.65625 11.125 2.36208 11.0027 2.1175 10.7581C1.8725 10.5131 1.75 10.2188 1.75 9.875C1.75 9.53125 1.8725 9.23688 2.1175 8.99187C2.36208 8.74729 2.65625 8.625 3 8.625C3.34375 8.625 3.63792 8.74729 3.8825 8.99187C4.1275 9.23688 4.25 9.53125 4.25 9.875C4.25 10.2188 4.1275 10.5131 3.8825 10.7581C3.63792 11.0027 3.34375 11.125 3 11.125ZM13 11.125C12.6562 11.125 12.3619 11.0027 12.1169 10.7581C11.8723 10.5131 11.75 10.2188 11.75 9.875C11.75 9.53125 11.8723 9.23688 12.1169 8.99187C12.3619 8.74729 12.6562 8.625 13 8.625C13.3438 8.625 13.6381 8.74729 13.8831 8.99187C14.1277 9.23688 14.25 9.53125 14.25 9.875C14.25 10.2188 14.1277 10.5131 13.8831 10.7581C13.6381 11.0027 13.3438 11.125 13 11.125ZM8 10.5C7.47917 10.5 7.03646 10.3177 6.67188 9.95312C6.30729 9.58854 6.125 9.14583 6.125 8.625C6.125 8.10417 6.30729 7.66146 6.67188 7.29688C7.03646 6.93229 7.47917 6.75 8 6.75C8.52083 6.75 8.96354 6.93229 9.32812 7.29688C9.69271 7.66146 9.875 8.10417 9.875 8.625C9.875 9.14583 9.69271 9.58854 9.32812 9.95312C8.96354 10.3177 8.52083 10.5 8 10.5ZM8 8C7.82292 8 7.67458 8.05979 7.555 8.17937C7.435 8.29937 7.375 8.44792 7.375 8.625C7.375 8.80208 7.435 8.95042 7.555 9.07C7.67458 9.19 7.82292 9.25 8 9.25C8.17708 9.25 8.32563 9.19 8.44563 9.07C8.56521 8.95042 8.625 8.80208 8.625 8.625C8.625 8.44792 8.56521 8.29937 8.44563 8.17937C8.32563 8.05979 8.17708 8 8 8Z" fill="#094F0C"/>
</g>
</svg>
