<svg width="16" height="16" viewBox="0 0 16 16" fill="none" xmlns="http://www.w3.org/2000/svg">
<mask id="mask0_1541_733" style="mask-type:alpha" maskUnits="userSpaceOnUse" x="0" y="0" width="16" height="16">
<rect x="0.5" y="0.5" width="15" height="15" fill="#D9D9D9"/>
</mask>
<g mask="url(#mask0_1541_733)">
<path d="M2.82811 13.1875C2.71353 13.0729 2.65624 12.9271 2.65624 12.75C2.65624 12.5729 2.71353 12.4271 2.82811 12.3125L8.79686 6.34376C8.60936 5.90626 8.58332 5.41147 8.71874 4.85939C8.85415 4.30731 9.15103 3.81251 9.60936 3.37501C10.1614 2.82293 10.776 2.50001 11.4531 2.40626C12.1302 2.31251 12.6823 2.47918 13.1094 2.90626C13.5364 3.33335 13.7031 3.88543 13.6094 4.56251C13.5156 5.2396 13.1927 5.85418 12.6406 6.40626C12.2031 6.8646 11.7083 7.16147 11.1562 7.29689C10.6042 7.43231 10.1094 7.40626 9.67186 7.21876L8.89061 8.00001L13.2031 12.3125C13.3177 12.4271 13.375 12.5729 13.375 12.75C13.375 12.9271 13.3177 13.0729 13.2031 13.1875C13.0781 13.3125 12.9323 13.375 12.7656 13.375C12.5989 13.375 12.4531 13.3125 12.3281 13.1875L8.01561 8.90626L3.70311 13.1875C3.57811 13.3125 3.43228 13.375 3.26561 13.375C3.09894 13.375 2.95311 13.3125 2.82811 13.1875ZM5.10936 8.28126L3.23436 6.40626C2.76561 5.93751 2.49207 5.39064 2.41374 4.76564C2.33582 4.14064 2.45311 3.5521 2.76561 3.00001C2.86978 2.82293 3.02603 2.72397 3.23436 2.70314C3.44269 2.68231 3.62499 2.75522 3.78124 2.92189L7.10936 6.28126L5.10936 8.28126Z" fill="#191B19"/>
</g>
</svg>
