<svg width="18" height="18" viewBox="0 0 18 18" fill="none" xmlns="http://www.w3.org/2000/svg">
<mask id="mask0_1541_750" style="mask-type:alpha" maskUnits="userSpaceOnUse" x="0" y="0" width="18" height="18">
<rect x="0.666656" y="0.666656" width="16.6667" height="16.6667" fill="#D9D9D9"/>
</mask>
<g mask="url(#mask0_1541_750)">
<path d="M6.62981 12.0816H9.58875C9.75985 12.0816 9.90336 12.0262 10.0193 11.9155C10.1348 11.8044 10.1926 11.6669 10.1926 11.5029C10.1926 11.3389 10.1348 11.2016 10.0193 11.0909C9.90336 10.9797 9.75985 10.9242 9.58875 10.9242H6.62981C6.45872 10.9242 6.3154 10.9797 6.19986 11.0909C6.08392 11.2016 6.02595 11.3389 6.02595 11.5029C6.02595 11.6669 6.08392 11.8044 6.19986 11.9155C6.3154 12.0262 6.45872 12.0816 6.62981 12.0816ZM6.62981 9.81018H11.3702C11.5412 9.81018 11.6848 9.75463 11.8007 9.64352C11.9162 9.53279 11.974 9.39545 11.974 9.23148C11.974 9.06752 11.9162 8.92998 11.8007 8.81887C11.6848 8.70814 11.5412 8.65278 11.3702 8.65278H6.62981C6.45872 8.65278 6.3154 8.70814 6.19986 8.81887C6.08392 8.92998 6.02595 9.06752 6.02595 9.23148C6.02595 9.39545 6.08392 9.53279 6.19986 9.64352C6.3154 9.75463 6.45872 9.81018 6.62981 9.81018ZM6.62981 7.53877H11.3702C11.5412 7.53877 11.6848 7.48322 11.8007 7.37211C11.9162 7.26138 11.974 7.12404 11.974 6.96007C11.974 6.7961 11.9162 6.65857 11.8007 6.54745C11.6848 6.43673 11.5412 6.38137 11.3702 6.38137H6.62981C6.45872 6.38137 6.3154 6.43673 6.19986 6.54745C6.08392 6.65857 6.02595 6.7961 6.02595 6.96007C6.02595 7.12404 6.08392 7.26138 6.19986 7.37211C6.3154 7.48322 6.45872 7.53877 6.62981 7.53877ZM4.81822 13.9334H13.1817V5.22396H4.81822V13.9334ZM4.81822 15.25C4.43577 15.25 4.1113 15.1198 3.84479 14.8594C3.57788 14.599 3.44443 14.2903 3.44443 13.9334V5.22396C3.44443 4.85745 3.57788 4.5463 3.84479 4.29051C4.1113 4.03511 4.43577 3.90741 4.81822 3.90741H7.23368C7.38464 3.55054 7.61874 3.26833 7.93597 3.06076C8.2528 2.85359 8.60747 2.75 8.99998 2.75C9.39249 2.75 9.74737 2.85359 10.0646 3.06076C10.3814 3.26833 10.6153 3.55054 10.7663 3.90741H13.1817C13.5642 3.90741 13.8889 4.03511 14.1558 4.29051C14.4223 4.5463 14.5555 4.85745 14.5555 5.22396V13.9334C14.5555 14.2903 14.4223 14.599 14.1558 14.8594C13.8889 15.1198 13.5642 15.25 13.1817 15.25H4.81822ZM8.99998 4.77546C9.14088 4.77546 9.25663 4.73206 9.3472 4.64525C9.43778 4.55845 9.48307 4.44753 9.48307 4.3125C9.48307 4.17747 9.43778 4.06655 9.3472 3.97975C9.25663 3.89294 9.14088 3.84954 8.99998 3.84954C8.85908 3.84954 8.74334 3.89294 8.65276 3.97975C8.56218 4.06655 8.51689 4.17747 8.51689 4.3125C8.51689 4.44753 8.56218 4.55845 8.65276 4.64525C8.74334 4.73206 8.85908 4.77546 8.99998 4.77546Z" fill="#191B19"/>
</g>
</svg>
