<svg width="16" height="16" viewBox="0 0 16 16" fill="none" xmlns="http://www.w3.org/2000/svg">
<path d="M3.725 8.11905L2.24063 6.63095C2.12188 6.51191 2.0625 6.37302 2.0625 6.21429C2.0625 6.05556 2.12188 5.91667 2.24063 5.79762L3.725 4.30952C3.84375 4.19048 3.98229 4.13095 4.14062 4.13095C4.29896 4.13095 4.4375 4.19048 4.55625 4.30952L6.04063 5.79762C6.15938 5.91667 6.21875 6.05556 6.21875 6.21429C6.21875 6.37302 6.15938 6.51191 6.04063 6.63095L4.55625 8.11905C4.4375 8.2381 4.29896 8.29762 4.14062 8.29762C3.98229 8.29762 3.84375 8.2381 3.725 8.11905ZM6.8125 14.25C6.64427 14.25 6.50326 14.193 6.38945 14.0789C6.27565 13.9648 6.21875 13.8234 6.21875 13.6548V11.2738C5.72396 11.2341 5.23411 11.1796 4.74922 11.1101C4.26432 11.0407 3.77943 10.9514 3.29453 10.8423C3.1263 10.8026 2.99023 10.7083 2.88633 10.5595C2.78242 10.4107 2.75521 10.252 2.80469 10.0833C2.85417 9.91468 2.9556 9.79068 3.10898 9.71131C3.26237 9.63195 3.42318 9.6121 3.59141 9.65179C4.3138 9.82044 5.04362 9.93452 5.78086 9.99405C6.5181 10.0536 7.25781 10.0833 8 10.0833C8.74219 10.0833 9.4819 10.0536 10.2191 9.99405C10.9564 9.93452 11.6862 9.82044 12.4086 9.65179C12.5768 9.6121 12.7376 9.63195 12.891 9.71131C13.0444 9.79068 13.1458 9.91468 13.1953 10.0833C13.2448 10.252 13.2176 10.4107 13.1137 10.5595C13.0098 10.7083 12.8737 10.8026 12.7055 10.8423C12.2206 10.9514 11.7357 11.0407 11.2508 11.1101C10.7659 11.1796 10.276 11.2341 9.78125 11.2738V13.6548C9.78125 13.8234 9.72435 13.9648 9.61055 14.0789C9.49675 14.193 9.35573 14.25 9.1875 14.25H6.8125ZM4.14062 6.86905L4.79375 6.21429L4.14062 5.55952L3.4875 6.21429L4.14062 6.86905ZM8 5.32143C7.50521 5.32143 7.08464 5.14782 6.73828 4.8006C6.39193 4.45337 6.21875 4.03175 6.21875 3.53571C6.21875 3.03968 6.39193 2.61806 6.73828 2.27083C7.08464 1.92361 7.50521 1.75 8 1.75C8.49479 1.75 8.91536 1.92361 9.26172 2.27083C9.60807 2.61806 9.78125 3.03968 9.78125 3.53571C9.78125 4.03175 9.60807 4.45337 9.26172 4.8006C8.91536 5.14782 8.49479 5.32143 8 5.32143ZM8 9.4881C7.67344 9.4881 7.39388 9.37153 7.16133 9.13839C6.92878 8.90526 6.8125 8.625 6.8125 8.29762C6.8125 7.97024 6.92878 7.68998 7.16133 7.45685C7.39388 7.22371 7.67344 7.10714 8 7.10714C8.32656 7.10714 8.60612 7.22371 8.83867 7.45685C9.07122 7.68998 9.1875 7.97024 9.1875 8.29762C9.1875 8.625 9.07122 8.90526 8.83867 9.13839C8.60612 9.37153 8.32656 9.4881 8 9.4881ZM8 4.13095C8.16823 4.13095 8.30925 4.07391 8.42305 3.95982C8.53685 3.84573 8.59375 3.70437 8.59375 3.53571C8.59375 3.36706 8.53685 3.22569 8.42305 3.11161C8.30925 2.99752 8.16823 2.94048 8 2.94048C7.83177 2.94048 7.69076 2.99752 7.57695 3.11161C7.46315 3.22569 7.40625 3.36706 7.40625 3.53571C7.40625 3.70437 7.46315 3.84573 7.57695 3.95982C7.69076 4.07391 7.83177 4.13095 8 4.13095ZM10.8352 8L10.1523 6.80952C10.1029 6.72024 10.0781 6.62103 10.0781 6.51191C10.0781 6.40278 10.1029 6.30357 10.1523 6.21429L10.8352 5.02381C10.8846 4.9246 10.9539 4.8502 11.043 4.8006C11.132 4.75099 11.231 4.72619 11.3398 4.72619H12.6758C12.7846 4.72619 12.8836 4.75099 12.9727 4.8006C13.0617 4.8502 13.131 4.9246 13.1805 5.02381L13.8633 6.21429C13.9128 6.30357 13.9375 6.40278 13.9375 6.51191C13.9375 6.62103 13.9128 6.72024 13.8633 6.80952L13.1805 8C13.131 8.09921 13.0617 8.17361 12.9727 8.22322C12.8836 8.27282 12.7846 8.29762 12.6758 8.29762H11.3398C11.231 8.29762 11.132 8.27282 11.043 8.22322C10.9539 8.17361 10.8846 8.09921 10.8352 8ZM11.6813 7.10714H12.3344L12.6609 6.51191L12.3344 5.91667H11.6813L11.3547 6.51191L11.6813 7.10714Z" fill="#191B19"/>
</svg>
